<svg viewBox="0 0 400 200" xmlns="http://www.w3.org/2000/svg">
  <!-- Enhanced Neural Grid Background -->
  <defs>
    <linearGradient id="neuralGrad" x1="0%" y1="0%" x2="100%" y2="100%">
      <stop offset="0%" style="stop-color:#FFD21E;stop-opacity:0.1"/>
      <stop offset="100%" style="stop-color:#FF9D00;stop-opacity:0.1"/>
    </linearGradient>
    <pattern id="neural-grid-enhanced" x="0" y="0" width="50" height="50" patternUnits="userSpaceOnUse">
      <circle cx="2" cy="2" r="1" fill="#6B7280" opacity="0.3"/>
      <circle cx="25" cy="25" r="1" fill="#FFD21E" opacity="0.4"/>
      <line x1="2" y1="2" x2="48" y2="48" stroke="#6B7280" stroke-width="0.5" opacity="0.2"/>
      <line x1="25" y1="0" x2="25" y2="50" stroke="#FF9D00" stroke-width="0.3" opacity="0.2"/>
    </pattern>
  </defs>
  
  <!-- Dynamic Background -->
  <rect width="400" height="200" fill="url(#neural-grid-enhanced)"/>
  <rect width="400" height="200" fill="url(#neuralGrad)"/>
  
  <!-- AI Circuit Paths -->
  <path d="M0 100 Q 100 50, 200 100 T 400 100" stroke="#FFD21E" stroke-width="0.5" fill="none" opacity="0.3"/>
  <path d="M0 120 Q 100 170, 200 120 T 400 120" stroke="#FF9D00" stroke-width="0.5" fill="none" opacity="0.3"/>
  
  <!-- Main Logo Group with Enhanced Styling -->
  <g transform="translate(100, 40)">
    <!-- V with gradient -->
    <linearGradient id="vGradient" x1="0%" y1="0%" x2="100%" y2="100%">
      <stop offset="0%" style="stop-color:#FFD21E"/>
      <stop offset="100%" style="stop-color:#FF9D00"/>
    </linearGradient>
    <path d="M0 0 L40 120 L80 0" fill="none" stroke="url(#vGradient)" stroke-width="8"/>
    
    <!-- Δ with enhanced styling -->
    <path d="M100 120 L140 0 L180 120 Z" fill="#FF9D00">
      <animate attributeName="opacity" values="0.8;1;0.8" dur="3s" repeatCount="indefinite"/>
    </path>
    
    <!-- O with pulsing effect -->
    <circle cx="220" cy="60" r="60" fill="none" stroke="#6B7280" stroke-width="8">
      <animate attributeName="stroke-width" values="8;10;8" dur="2s" repeatCount="indefinite"/>
    </circle>
    
    <!-- S with gradient -->
    <linearGradient id="sGradient" x1="0%" y1="0%" x2="100%" y2="100%">
      <stop offset="0%" style="stop-color:#FFD21E"/>
      <stop offset="100%" style="stop-color:#FF9D00"/>
    </linearGradient>
    <path d="M280 20 C310 20 330 40 330 60 C330 80 290 90 290 100 C290 110 310 120 340 120" 
          fill="none" stroke="url(#sGradient)" stroke-width="8" stroke-linecap="round"/>
  </g>
  
  <!-- Data Flow Indicators -->
  <g stroke="#6B7280" stroke-width="0.5" opacity="0.3">
    <path d="M50 180 Q200 160 350 180" fill="none">
      <animate attributeName="d" 
               values="M50 180 Q200 160 350 180;M50 170 Q200 190 350 170;M50 180 Q200 160 350 180" 
               dur="4s" repeatCount="indefinite"/>
    </path>
  </g>
</svg>
